<?xml version="1.0" standalone="no"?>
<!DOCTYPE svg PUBLIC "-//W3C//DTD SVG 20010904//EN"
 "http://www.w3.org/TR/2001/REC-SVG-20010904/DTD/svg10.dtd">
<svg version="1.0" xmlns="http://www.w3.org/2000/svg"
 width="860.000000pt" height="670.000000pt" viewBox="0 0 860.000000 670.000000"
 preserveAspectRatio="xMidYMid meet">

<g transform="translate(0.000000,670.000000) scale(0.100000,-0.100000)"
fill="#F48120" stroke="none">
<path d="M3165 6270 c-434 -66 -810 -254 -1139 -570 -294 -282 -496 -624 -590
-999 -43 -170 -59 -302 -61 -514 l-2 -198 -95 -52 c-184 -102 -302 -193 -449
-344 -250 -258 -419 -579 -491 -935 -20 -100 -23 -141 -23 -363 1 -232 3 -259
28 -376 80 -376 256 -685 549 -965 316 -301 670 -462 1104 -504 152 -14 4724
-14 4865 1 416 42 748 213 1042 539 188 208 324 488 373 765 24 139 25 423 0
560 -103 583 -545 1079 -1111 1250 -49 15 -91 29 -93 30 -2 2 15 36 37 77 90
164 127 339 118 552 -12 282 -112 502 -320 703 -151 146 -295 228 -487 276
-71 18 -114 21 -255 21 -152 0 -181 -3 -269 -27 -121 -32 -237 -88 -340 -162
-43 -31 -80 -55 -81 -53 -2 2 -21 42 -43 90 -296 642 -933 1109 -1641 1203
-153 21 -474 18 -626 -5z m933 -1454 c15 -8 366 -354 780 -768 l752 -753 0
-50 c0 -62 -25 -106 -73 -128 -31 -15 -87 -17 -511 -17 l-476 0 0 -741 c0
-820 2 -790 -64 -830 -29 -18 -58 -19 -469 -19 -477 0 -474 0 -513 57 -18 27
-19 60 -22 781 l-2 752 -476 0 c-524 0 -526 0 -564 62 -23 39 -26 98 -6 136
17 30 1490 1504 1521 1521 28 15 91 13 123 -3z"/>
</g>
</svg>
